<svg xmlns="http://www.w3.org/2000/svg" xmlns:xlink="http://www.w3.org/1999/xlink" width="100" zoomAndPan="magnify" viewBox="0 0 75 30.000001" height="40" preserveAspectRatio="xMidYMid meet" version="1.0"><defs><g/><clipPath id="41bc4ddfd3"><path d="M 1.210938 5 L 73.789062 5 L 73.789062 24 L 1.210938 24 Z M 1.210938 5 " clip-rule="nonzero"/></clipPath><clipPath id="d4b282bb3d"><path d="M 0.210938 3.757812 L 22 3.757812 L 22 18.25 L 0.210938 18.25 Z M 0.210938 3.757812 " clip-rule="nonzero"/></clipPath><clipPath id="f6290e01f4"><path d="M 69 1 L 72.789062 1 L 72.789062 6 L 69 6 Z M 69 1 " clip-rule="nonzero"/></clipPath><clipPath id="b5e7563246"><rect x="0" width="73" y="0" height="19"/></clipPath></defs><g clip-path="url(#41bc4ddfd3)"><g transform="matrix(1, 0, 0, 1, 1, 5)"><g clip-path="url(#b5e7563246)"><g clip-path="url(#d4b282bb3d)"><path fill="#e9333d" d="M 2.550781 17.8125 C 1.652344 17.570312 0.949219 16.859375 0.691406 15.984375 C 0.265625 14.367188 0.265625 10.996094 0.265625 10.996094 C 0.265625 10.996094 0.265625 7.628906 0.691406 6.027344 C 0.949219 5.132812 1.652344 4.4375 2.550781 4.195312 C 4.164062 3.757812 10.683594 3.757812 10.683594 3.757812 C 10.683594 3.757812 17.222656 3.757812 18.835938 4.195312 C 19.75 4.4375 20.433594 5.132812 20.679688 6.023438 C 21.121094 7.625 21.121094 10.996094 21.121094 10.996094 C 21.121094 10.996094 21.121094 14.367188 20.679688 15.984375 C 20.433594 16.859375 19.75 17.570312 18.835938 17.8125 C 17.222656 18.25 10.683594 18.25 10.683594 18.25 C 10.683594 18.25 4.164062 18.25 2.550781 17.8125 Z M 8.613281 14.109375 L 14.023438 10.996094 L 8.613281 7.898438 Z M 8.613281 14.109375 " fill-opacity="1" fill-rule="nonzero"/></g><path fill="#ffffff" d="M 8.613281 14.109375 L 14.023438 10.996094 L 8.613281 7.898438 Z M 8.613281 14.109375 " fill-opacity="1" fill-rule="nonzero"/><path fill="#ffffff" d="M 25.558594 17.359375 L 25.558594 13.390625 L 23.144531 4.664062 L 25.242188 4.664062 L 26.109375 8.535156 C 26.308594 9.425781 26.511719 10.703125 26.601562 11.164062 L 26.617188 11.164062 C 26.710938 10.71875 26.910156 9.441406 27.113281 8.550781 L 28.011719 4.664062 L 30.109375 4.664062 L 27.664062 13.394531 L 27.664062 17.359375 Z M 25.558594 17.359375 " fill-opacity="1" fill-rule="nonzero"/><path fill="#ffffff" d="M 35.21875 12.339844 L 35.21875 13.082031 C 35.21875 16.375 34.488281 17.496094 32.308594 17.496094 C 30.128906 17.496094 29.398438 16.347656 29.398438 13.082031 L 29.398438 12.339844 C 29.398438 8.972656 30.265625 7.898438 32.355469 7.898438 C 34.441406 7.898438 35.21875 9.019531 35.21875 12.339844 Z M 33.085938 11.632812 C 33.085938 9.847656 32.917969 9.335938 32.324219 9.335938 C 31.726562 9.335938 31.53125 9.847656 31.53125 11.632812 L 31.53125 13.761719 C 31.53125 15.605469 31.714844 16.074219 32.292969 16.074219 C 32.917969 16.074219 33.085938 15.605469 33.085938 13.761719 Z M 33.085938 11.632812 " fill-opacity="1" fill-rule="nonzero"/><path fill="#ffffff" d="M 36.101562 15.046875 L 36.101562 8.082031 L 38.203125 8.082031 L 38.203125 14.828125 C 38.203125 15.644531 38.386719 16.007812 38.820312 16.007812 C 39.148438 16.007812 39.46875 15.863281 39.699219 15.257812 L 39.699219 8.082031 L 41.800781 8.082031 L 41.800781 17.34375 L 40.015625 17.34375 L 39.894531 16.097656 L 39.886719 16.097656 C 39.628906 16.980469 39.117188 17.523438 38.058594 17.523438 C 36.660156 17.523438 36.101562 16.632812 36.101562 15.046875 Z M 36.101562 15.046875 " fill-opacity="1" fill-rule="nonzero"/><path fill="#ffffff" d="M 43.277344 17.34375 L 43.277344 6.449219 L 41.199219 6.449219 L 41.199219 4.664062 L 47.460938 4.664062 L 47.460938 6.449219 L 45.378906 6.449219 L 45.378906 17.34375 Z M 43.277344 17.34375 " fill-opacity="1" fill-rule="nonzero"/><path fill="#ffffff" d="M 46.878906 15.046875 L 46.878906 8.082031 L 48.984375 8.082031 L 48.984375 14.828125 C 48.984375 15.644531 49.164062 16.007812 49.601562 16.007812 C 49.925781 16.007812 50.246094 15.863281 50.476562 15.257812 L 50.476562 8.082031 L 52.578125 8.082031 L 52.578125 17.34375 L 50.796875 17.34375 L 50.675781 16.097656 L 50.667969 16.097656 C 50.40625 16.980469 49.898438 17.523438 48.839844 17.523438 C 47.4375 17.523438 46.878906 16.632812 46.878906 15.046875 Z M 46.878906 15.046875 " fill-opacity="1" fill-rule="nonzero"/><path fill="#ffffff" d="M 59.578125 11.996094 L 59.578125 13.234375 C 59.578125 16.226562 58.9375 17.480469 57.519531 17.480469 C 56.660156 17.480469 56.011719 17.101562 55.675781 16.46875 L 55.667969 16.46875 L 55.53125 17.34375 L 53.703125 17.34375 L 53.703125 4.195312 L 55.730469 4.195312 L 55.730469 6.855469 C 55.730469 7.550781 55.746094 8.246094 55.683594 9.078125 L 55.707031 9.078125 C 56.054688 8.382812 56.660156 7.898438 57.601562 7.898438 C 58.957031 7.898438 59.574219 8.777344 59.574219 11.996094 Z M 57.429688 11.996094 C 57.429688 9.847656 57.246094 9.378906 56.660156 9.378906 C 56.265625 9.378906 55.882812 9.726562 55.730469 10.394531 L 55.730469 15.507812 C 55.914062 15.863281 56.234375 16.015625 56.566406 16.015625 C 57.199219 16.015625 57.429688 15.347656 57.429688 13.339844 Z M 57.429688 11.996094 " fill-opacity="1" fill-rule="nonzero"/><path fill="#ffffff" d="M 65.960938 13.378906 L 62.476562 13.378906 L 62.476562 13.882812 C 62.476562 15.515625 62.515625 16.074219 63.195312 16.074219 C 63.875 16.074219 64.015625 15.558594 64.03125 14.503906 L 65.882812 14.585938 C 66.019531 16.601562 64.96875 17.496094 63.1875 17.496094 C 61.023438 17.496094 60.382812 16.089844 60.382812 13.535156 L 60.382812 11.917969 C 60.382812 9.230469 61.101562 7.914062 63.246094 7.914062 C 65.394531 7.914062 65.960938 9.03125 65.960938 11.828125 Z M 62.476562 11.511719 L 62.476562 12.214844 L 63.863281 12.214844 L 63.863281 11.511719 C 63.863281 9.800781 63.796875 9.320312 63.164062 9.320312 C 62.53125 9.320312 62.476562 9.816406 62.476562 11.511719 Z M 62.476562 11.511719 " fill-opacity="1" fill-rule="nonzero"/><g fill="#ffffff" fill-opacity="1"><g transform="translate(66.0798, 5.405235)"><g><path d="M 1.8125 -0.40625 C 1.957031 -0.40625 2.082031 -0.421875 2.1875 -0.453125 C 2.289062 -0.484375 2.375 -0.53125 2.4375 -0.59375 C 2.507812 -0.65625 2.5625 -0.726562 2.59375 -0.8125 C 2.625 -0.894531 2.640625 -0.988281 2.640625 -1.09375 C 2.640625 -1.28125 2.566406 -1.429688 2.421875 -1.546875 C 2.285156 -1.660156 2.082031 -1.71875 1.8125 -1.71875 L 0.984375 -1.71875 L 0.984375 -0.40625 Z M 0.984375 -3.375 L 0.984375 -2.078125 L 1.65625 -2.078125 C 1.800781 -2.078125 1.925781 -2.09375 2.03125 -2.125 C 2.144531 -2.15625 2.234375 -2.195312 2.296875 -2.25 C 2.367188 -2.3125 2.421875 -2.378906 2.453125 -2.453125 C 2.484375 -2.535156 2.5 -2.628906 2.5 -2.734375 C 2.5 -2.953125 2.429688 -3.113281 2.296875 -3.21875 C 2.171875 -3.320312 1.96875 -3.375 1.6875 -3.375 Z M 1.6875 -3.765625 C 1.914062 -3.765625 2.113281 -3.742188 2.28125 -3.703125 C 2.445312 -3.660156 2.582031 -3.597656 2.6875 -3.515625 C 2.800781 -3.429688 2.882812 -3.328125 2.9375 -3.203125 C 2.988281 -3.078125 3.015625 -2.9375 3.015625 -2.78125 C 3.015625 -2.695312 3 -2.609375 2.96875 -2.515625 C 2.9375 -2.429688 2.890625 -2.351562 2.828125 -2.28125 C 2.773438 -2.207031 2.703125 -2.140625 2.609375 -2.078125 C 2.523438 -2.023438 2.425781 -1.976562 2.3125 -1.9375 C 2.582031 -1.882812 2.785156 -1.785156 2.921875 -1.640625 C 3.066406 -1.492188 3.140625 -1.304688 3.140625 -1.078125 C 3.140625 -0.910156 3.109375 -0.757812 3.046875 -0.625 C 2.992188 -0.5 2.910156 -0.390625 2.796875 -0.296875 C 2.679688 -0.203125 2.539062 -0.128906 2.375 -0.078125 C 2.207031 -0.0234375 2.019531 0 1.8125 0 L 0.484375 0 L 0.484375 -3.765625 Z M 1.6875 -3.765625 "/></g></g></g><g clip-path="url(#f6290e01f4)"><g fill="#ffffff" fill-opacity="1"><g transform="translate(69.486561, 5.405235)"><g><path d="M 1.53125 -1.953125 C 1.675781 -1.953125 1.804688 -1.96875 1.921875 -2 C 2.035156 -2.03125 2.128906 -2.078125 2.203125 -2.140625 C 2.273438 -2.210938 2.332031 -2.296875 2.375 -2.390625 C 2.414062 -2.484375 2.4375 -2.582031 2.4375 -2.6875 C 2.4375 -2.914062 2.359375 -3.085938 2.203125 -3.203125 C 2.054688 -3.316406 1.835938 -3.375 1.546875 -3.375 L 0.984375 -3.375 L 0.984375 -1.953125 Z M 3.265625 0 L 2.8125 0 C 2.71875 0 2.648438 -0.0351562 2.609375 -0.109375 L 1.625 -1.453125 C 1.601562 -1.492188 1.570312 -1.523438 1.53125 -1.546875 C 1.5 -1.566406 1.445312 -1.578125 1.375 -1.578125 L 0.984375 -1.578125 L 0.984375 0 L 0.484375 0 L 0.484375 -3.765625 L 1.546875 -3.765625 C 1.785156 -3.765625 1.988281 -3.738281 2.15625 -3.6875 C 2.332031 -3.644531 2.476562 -3.578125 2.59375 -3.484375 C 2.707031 -3.398438 2.789062 -3.289062 2.84375 -3.15625 C 2.90625 -3.03125 2.9375 -2.890625 2.9375 -2.734375 C 2.9375 -2.597656 2.910156 -2.472656 2.859375 -2.359375 C 2.816406 -2.242188 2.753906 -2.140625 2.671875 -2.046875 C 2.597656 -1.953125 2.503906 -1.867188 2.390625 -1.796875 C 2.273438 -1.734375 2.144531 -1.6875 2 -1.65625 C 2.0625 -1.625 2.117188 -1.570312 2.171875 -1.5 Z M 3.265625 0 "/></g></g></g></g></g></g></g></svg>